<svg>
    <symbol width="24" height="24" viewBox="0 0 24 24" fill="none" xmlns="http://www.w3.org/2000/svg" id="arrow">
        <path fill-rule="evenodd" clip-rule="evenodd" d="M7 10L12 15L17 10H7Z" fill="#E6E6E6"/>
    </symbol>

    <symbol width="24" height="24" viewBox="0 0 24 24" xmlns="http://www.w3.org/2000/svg" id="bookmark">
        <path fill-rule="evenodd" clip-rule="evenodd" d="M17 3H7C5.9 3 5 3.9 5 5V21L12 18L19 21V5C19 3.9 18.1 3 17 3ZM17 18L12 15.82L7 18V5H17V18Z"/>
    </symbol>

    <symbol width="16" height="17" viewBox="0 0 16 17" fill="none" xmlns="http://www.w3.org/2000/svg" id="search">
        <g clip-path="url(#clip0_1795_421)">
            <path fill-rule="evenodd" clip-rule="evenodd" d="M7.33331 12.5C9.91064 12.5 12 10.4106 12 7.83331C12 5.25598 9.91064 3.16665 7.33331 3.16665C4.75598 3.16665 2.66665 5.25598 2.66665 7.83331C2.66665 10.4106 4.75598 12.5 7.33331 12.5ZM7.33331 13.8333C8.7425 13.8333 10.0382 13.3475 11.0621 12.5342C11.4427 12.232 11.7856 11.8845 12.0829 11.5C12.8669 10.486 13.3333 9.21414 13.3333 7.83331C13.3333 4.5196 10.647 1.83331 7.33331 1.83331C4.0196 1.83331 1.33331 4.5196 1.33331 7.83331C1.33331 11.147 4.0196 13.8333 7.33331 13.8333Z" fill="#737373"/>
            <path d="M14.5506 14.2826C14.615 14.2183 14.6158 14.1142 14.5525 14.0488L12.0829 11.5C11.7856 11.8845 11.4427 12.232 11.0621 12.5342L13.5488 15.0475C13.6138 15.1132 13.7198 15.1135 13.7851 15.0482L14.5506 14.2826Z" fill="#737373"/>
        </g>
        <defs>
            <clipPath id="clip0_1795_421">
                <rect width="16" height="16" fill="white" transform="translate(0 0.5)"/>
            </clipPath>
        </defs>
    </symbol>

    <symbol width="24" height="20" viewBox="0 0 24 24" xmlns="http://www.w3.org/2000/svg" id="close">
        <path d="M19 6.41L17.59 5L12 10.59L6.41 5L5 6.41L10.59 12L5 17.59L6.41 19L12 13.41L17.59 19L19 17.59L13.41 12L19 6.41Z"/>
    </symbol>

    <symbol width="20" height="20" viewBox="0 0 20 20" fill="none" xmlns="http://www.w3.org/2000/svg" id="star">
        <g clip-path="url(#clip0_1803_1104)">
            <path d="M10 14.3917L15.15 17.5L13.7833 11.6417L18.3333 7.70002L12.3417 7.19169L10 1.66669L7.65833 7.19169L1.66667 7.70002L6.21667 11.6417L4.85 17.5L10 14.3917Z" fill="#FBBC09"/>
        </g>

        <defs>
            <clipPath id="clip0_1803_1104">
                <rect width="20" height="20" fill="white"/>
            </clipPath>
        </defs>
    </symbol>

    <symbol width="18" height="18" viewBox="0 0 18 18" xmlns="http://www.w3.org/2000/svg" id="play">
        <path d="M13.8756 8.46594C14.4266 8.87529 14.4108 9.7053 13.8447 10.0934L6.06546 15.4267C5.40185 15.8817 4.5 15.4066 4.5 14.602L4.5 3.48879C4.5 2.66682 5.4366 2.19588 6.09639 2.68609L13.8756 8.46594Z"/>
    </symbol>

    <symbol width="24" height="20" viewBox="0 0 24 24" xmlns="http://www.w3.org/2000/svg" id="share">
        <g clip-path="url(#clip0_1_729)">
            <path d="M18 16.08C17.24 16.08 16.56 16.38 16.04 16.85L8.91 12.7C8.96 12.47 9 12.24 9 12C9 11.76 8.96 11.53 8.91 11.3L15.96 7.19C16.5 7.69 17.21 8 18 8C19.66 8 21 6.66 21 5C21 3.34 19.66 2 18 2C16.34 2 15 3.34 15 5C15 5.24 15.04 5.47 15.09 5.7L8.04 9.81C7.5 9.31 6.79 9 6 9C4.34 9 3 10.34 3 12C3 13.66 4.34 15 6 15C6.79 15 7.5 14.69 8.04 14.19L15.16 18.35C15.11 18.56 15.08 18.78 15.08 19C15.08 20.61 16.39 21.92 18 21.92C19.61 21.92 20.92 20.61 20.92 19C20.92 17.39 19.61 16.08 18 16.08ZM18 4C18.55 4 19 4.45 19 5C19 5.55 18.55 6 18 6C17.45 6 17 5.55 17 5C17 4.45 17.45 4 18 4ZM6 13C5.45 13 5 12.55 5 12C5 11.45 5.45 11 6 11C6.55 11 7 11.45 7 12C7 12.55 6.55 13 6 13ZM18 20.02C17.45 20.02 17 19.57 17 19.02C17 18.47 17.45 18.02 18 18.02C18.55 18.02 19 18.47 19 19.02C19 19.57 18.55 20.02 18 20.02Z"/>
        </g>

        <defs>
            <clipPath id="clip0_1_729">
                <rect width="24" height="24"/>
            </clipPath>
        </defs>
    </symbol>

    <symbol width="24" height="24" viewBox="0 0 24 24" fill="none" xmlns="http://www.w3.org/2000/svg" id="burger">
        <path d="M3 18H21V16H3V18ZM3 13H21V11H3V13ZM3 6V8H21V6H3Z" fill="#E6E6E6"/>
    </symbol>

    <symbol width="25" height="24" viewBox="0 0 25 24" xmlns="http://www.w3.org/2000/svg" id="home">
        <path d="M14.8 14.5H10.8V20.5H4.29999V9.62354C4.29999 9.54568 4.33627 9.47225 4.39812 9.42495L12.6481 3.11613C12.7378 3.04758 12.8622 3.04758 12.9519 3.11613L21.2019 9.42495C21.2637 9.47225 21.3 9.54568 21.3 9.62354V20.5H14.8V14.5Z"/>
    </symbol>

    <symbol width="25" height="24" viewBox="0 0 25 24" xmlns="http://www.w3.org/2000/svg" id="films">
        <g opacity="0.89">
            <path d="M5.02311 6.90902C4.94359 6.36249 5.32217 5.85498 5.8687 5.77545L13.7853 4.62356C14.3319 4.54404 14.8394 4.92262 14.9189 5.46915L15.0998 6.71263H17.1209L16.7541 4.1916C16.595 3.09854 15.58 2.34137 14.4869 2.50041L4.59115 3.94028C3.49809 4.09933 2.74092 5.11436 2.89996 6.20741L4.33983 16.1032C4.48479 17.0995 5.34087 17.8167 6.31899 17.8155V15.8876C6.31899 15.8394 6.31551 15.7913 6.30857 15.7436L5.02311 6.90902Z"/>
            <path d="M12.6209 17.6164V11.3846C12.6209 11.2228 12.803 11.128 12.9356 11.2208L17.3868 14.3366C17.5006 14.4163 17.5006 14.5847 17.3868 14.6643L12.9356 17.7802C12.803 17.873 12.6209 17.7782 12.6209 17.6164Z"/>
            <path fill-rule="evenodd" clip-rule="evenodd" d="M19.6209 7.50049H9.62089C8.51632 7.50049 7.62089 8.39592 7.62089 9.50049V19.5005C7.62089 20.6051 8.51632 21.5005 9.62089 21.5005H19.6209C20.7255 21.5005 21.6209 20.6051 21.6209 19.5005V9.50049C21.6209 8.39592 20.7255 7.50049 19.6209 7.50049ZM18.6209 9.50049L10.6209 9.50049C10.0686 9.50049 9.62089 9.9482 9.62089 10.5005V18.5005C9.62089 19.0528 10.0686 19.5005 10.6209 19.5005H18.6209C19.1732 19.5005 19.6209 19.0528 19.6209 18.5005V10.5005C19.6209 9.9482 19.1732 9.50049 18.6209 9.50049Z"/>
            <path d="M5.79671 5.28066C4.97691 5.39995 4.40904 6.16122 4.52832 6.98101L5.81378 15.8156C5.81725 15.8395 5.81899 15.8635 5.81899 15.8876V17.2299C5.31123 17.0499 4.91756 16.6012 4.83462 16.0312L3.39475 6.13542C3.27547 5.31563 3.84335 4.55435 4.66314 4.43507L14.5589 2.9952C15.3787 2.87592 16.14 3.4438 16.2593 4.26359L16.5429 6.21263H15.5323L15.4137 5.39716C15.2944 4.57737 14.5331 4.00949 13.7133 4.12877L5.79671 5.28066ZM16.749 14.5005L13.1209 17.0402V11.9608L16.749 14.5005ZM17.1001 14.7463C17.0999 14.7461 17.0997 14.746 17.0995 14.7459L17.1001 14.7463ZM17.0995 14.2551C17.0997 14.255 17.0999 14.2549 17.1001 14.2547L17.0995 14.2551ZM9.62089 8.00049H19.6209C20.4493 8.00049 21.1209 8.67206 21.1209 9.50049V19.5005C21.1209 20.3289 20.4493 21.0005 19.6209 21.0005H9.62089C8.79247 21.0005 8.12089 20.3289 8.12089 19.5005V9.50049C8.12089 8.67206 8.79247 8.00049 9.62089 8.00049ZM18.6209 9.00049L10.6209 9.00049C9.79246 9.00049 9.12089 9.67206 9.12089 10.5005V18.5005C9.12089 19.3289 9.79247 20.0005 10.6209 20.0005H18.6209C19.4493 20.0005 20.1209 19.3289 20.1209 18.5005V10.5005C20.1209 9.67206 19.4493 9.00049 18.6209 9.00049Z"/>
        </g>
    </symbol>

    <symbol width="24" height="24" viewBox="0 0 24 24" xmlns="http://www.w3.org/2000/svg" id="serials">
        <path fill-rule="evenodd" clip-rule="evenodd" d="M12 20.5C16.9706 20.5 20.5 16.9706 20.5 12C20.5 7.02944 16.9706 3.5 12 3.5C7.02944 3.5 3.5 7.02944 3.5 12C3.5 16.9706 7.02944 20.5 12 20.5ZM12 22.5C18.0751 22.5 22.5 18.0751 22.5 12C22.5 5.92487 18.0751 1.5 12 1.5C5.92487 1.5 1.5 5.92487 1.5 12C1.5 18.0751 5.92487 22.5 12 22.5Z"/>
        <path d="M5.27551 11H7.27551L7.32675 10.8359C7.43458 10.4907 7.6224 10.1405 7.97045 10.0423C8.06648 10.0152 8.16855 10 8.27551 10C8.38247 10 8.48453 10.0152 8.58056 10.0423C8.92861 10.1405 9.11644 10.4907 9.22426 10.8359L9.27551 11H11.2755C11.2755 10.6363 11.141 9.80534 11 9.55855C10.8491 9.29444 10.6413 9.03953 10.3915 8.81656C9.89187 8.37044 9.16278 8 8.27551 8C7.38823 8 6.65915 8.37044 6.15949 8.81656C5.90976 9.03953 5.70193 9.29444 5.55101 9.55855C5.40999 9.80534 5.27551 10.6363 5.27551 11Z"/>
        <path d="M13 11H15L15.0512 10.8359C15.1591 10.4907 15.3469 10.1405 15.6949 10.0423C15.791 10.0152 15.893 10 16 10C16.107 10 16.209 10.0152 16.305 10.0423C16.6531 10.1405 16.8409 10.4907 16.9487 10.8359L17 11H19C19 10.6363 18.8655 9.80534 18.7245 9.55855C18.5736 9.29444 18.3657 9.03953 18.116 8.81656C17.6164 8.37044 16.8873 8 16 8C15.1127 8 14.3836 8.37044 13.884 8.81656C13.6342 9.03953 13.4264 9.29444 13.2755 9.55855C13.1345 9.80534 13 10.6363 13 11Z"/>
        <path fill-rule="evenodd" clip-rule="evenodd" d="M10.7177 17.5308C8.64439 17.1191 7.04938 15.7325 6.2 14.6L7.8 13.4C8.45062 14.2675 9.65561 15.2809 11.1073 15.5692C12.4704 15.8398 14.257 15.5125 16.2628 13.3243L17.7372 14.6757C15.343 17.2875 12.8796 17.9602 10.7177 17.5308Z"/>
    </symbol>

    <symbol width="25" height="24" viewBox="0 0 25 24" xmlns="http://www.w3.org/2000/svg" id="search-mob">
        <g clip-path="url(#clip0_1904_1244)">
            <path fill-rule="evenodd" clip-rule="evenodd" d="M11.8 18C15.666 18 18.8 14.866 18.8 11C18.8 7.13401 15.666 4 11.8 4C7.93403 4 4.80002 7.13401 4.80002 11C4.80002 14.866 7.93403 18 11.8 18ZM11.8 20C13.9138 20 15.8574 19.2713 17.3932 18.0514C17.964 17.598 18.4785 17.0768 18.9245 16.5C20.1004 14.9791 20.8 13.0712 20.8 11C20.8 6.02944 16.7706 2 11.8 2C6.82946 2 2.80002 6.02944 2.80002 11C2.80002 15.9706 6.82946 20 11.8 20Z"/>
            <path d="M22.626 20.674C22.7226 20.5775 22.7238 20.4213 22.6288 20.3233L18.9245 16.5C18.4785 17.0768 17.964 17.598 17.3932 18.0514L21.1232 21.8213C21.2207 21.9199 21.3797 21.9203 21.4777 21.8223L22.626 20.674Z"/>
        </g>

        <defs>
            <clipPath id="clip0_1904_1244">
                <rect width="24" height="24" fill="white" transform="translate(0.800018)"/>
            </clipPath>
        </defs>
    </symbol>

    <symbol width="16" height="16" viewBox="0 0 16 16" fill="none" xmlns="http://www.w3.org/2000/svg" id="closeSearch">
        <rect width="16" height="16" rx="8" fill="#737373"/>
        <path d="M11.5 5.205L10.795 4.5L8 7.295L5.205 4.5L4.5 5.205L7.295 8L4.5 10.795L5.205 11.5L8 8.705L10.795 11.5L11.5 10.795L8.705 8L11.5 5.205Z" fill="#090808"/>
    </symbol>
</svg>